<?xml version="1.0" encoding="utf-8"?><svg width="auto" height="1920" style="overflow:visible " version="1.1" xmlns="http://www.w3.org/2000/svg"><rect x="20" y="20" width="200" height="40" style="fill:white;stroke:black;stroke-width:1" /><text x="30" y="30" font-size="10" style="fill:blue">xsl:stylesheet</text><text x="30" y="40" font-size="8" style="fill:black">version: 1.0</text><text x="30" y="50" font-size="8" style="fill:black">xmlns:xsl: http://www.w3.org/1999/XSL/Transform</text><rect x="240" y="20" width="200" height="40" style="fill:white;stroke:black;stroke-width:1" /><text x="250" y="30" font-size="10" style="fill:blue">xsl:output</text><path d="M220 40 C240 40 220 40 240 40" style="fill:transparent;stroke:black" /><text x="250" y="40" font-size="8" style="fill:black">method: html</text><text x="250" y="50" font-size="8" style="fill:black">version: 1.0</text><text x="250" y="60" font-size="8" style="fill:black">encoding: UTF-8</text><text x="250" y="70" font-size="8" style="fill:black">indent: yes</text><rect x="240" y="70" width="200" height="40" style="fill:white;stroke:black;stroke-width:1" /><text x="250" y="80" font-size="10" style="fill:blue">xsl:template</text><path d="M220 40 C240 40 220 90 240 90" style="fill:transparent;stroke:black" /><text x="250" y="90" font-size="8" style="fill:black">match: /</text><rect x="460" y="70" width="200" height="40" style="fill:white;stroke:black;stroke-width:1" /><text x="470" y="80" font-size="10" style="fill:blue">xsl:text</text><path d="M440 90 C460 90 440 90 460 90" style="fill:transparent;stroke:black" /><text x="470" y="90" font-size="8" style="fill:black">disable-output-escaping: yes</text><rect x="526" y="70" width="137" height="40" style="fill:green;stroke:black;stroke-width:1" /><text x="536" y="80" font-size="8" style="fill:white">&lt;!DOCTYPE html&gt;</text><rect x="460" y="120" width="200" height="40" style="fill:white;stroke:black;stroke-width:1" /><text x="470" y="130" font-size="10" style="fill:blue">html</text><path d="M440 90 C460 90 440 140 460 140" style="fill:transparent;stroke:black" /><rect x="680" y="120" width="200" height="40" style="fill:white;stroke:black;stroke-width:1" /><text x="690" y="130" font-size="10" style="fill:blue">head</text><path d="M660 140 C680 140 660 140 680 140" style="fill:transparent;stroke:black" /><rect x="900" y="120" width="200" height="40" style="fill:white;stroke:black;stroke-width:1" /><text x="910" y="130" font-size="10" style="fill:blue">title</text><path d="M880 140 C900 140 880 140 900 140" style="fill:transparent;stroke:black" /><rect x="966" y="120" width="137" height="40" style="fill:green;stroke:black;stroke-width:1" /><text x="976" y="130" font-size="8" style="fill:white">P4. Ejercicio2 - Tarea1</text><rect x="680" y="220" width="200" height="40" style="fill:white;stroke:black;stroke-width:1" /><text x="690" y="230" font-size="10" style="fill:blue">body</text><path d="M660 140 C680 140 660 240 680 240" style="fill:transparent;stroke:black" /><rect x="900" y="220" width="200" height="40" style="fill:white;stroke:black;stroke-width:1" /><text x="910" y="230" font-size="10" style="fill:blue">h1</text><path d="M880 240 C900 240 880 240 900 240" style="fill:transparent;stroke:black" /><rect x="966" y="220" width="137" height="40" style="fill:green;stroke:black;stroke-width:1" /><text x="976" y="230" font-size="8" style="fill:white">Ejercicio2 - Tarea1</text><rect x="900" y="270" width="200" height="40" style="fill:white;stroke:black;stroke-width:1" /><text x="910" y="280" font-size="10" style="fill:blue">h2</text><path d="M880 240 C900 240 880 290 900 290" style="fill:transparent;stroke:black" /><rect x="966" y="270" width="137" height="40" style="fill:green;stroke:black;stroke-width:1" /><text x="976" y="280" font-size="8" style="fill:white">Todas las recetas</text><rect x="900" y="320" width="200" height="40" style="fill:white;stroke:black;stroke-width:1" /><text x="910" y="330" font-size="10" style="fill:blue">xsl:for-each</text><path d="M880 240 C900 240 880 340 900 340" style="fill:transparent;stroke:black" /><text x="910" y="340" font-size="8" style="fill:black">select: recetas/receta</text><rect x="1120" y="320" width="200" height="40" style="fill:white;stroke:black;stroke-width:1" /><text x="1130" y="330" font-size="10" style="fill:blue">h3</text><path d="M1100 340 C1120 340 1100 340 1120 340" style="fill:transparent;stroke:black" /><rect x="1340" y="320" width="200" height="40" style="fill:white;stroke:black;stroke-width:1" /><text x="1350" y="330" font-size="10" style="fill:blue">xsl:value-of</text><path d="M1320 340 C1340 340 1320 340 1340 340" style="fill:transparent;stroke:black" /><text x="1350" y="340" font-size="8" style="fill:black">select: titulo</text><rect x="1120" y="420" width="200" height="40" style="fill:white;stroke:black;stroke-width:1" /><text x="1130" y="430" font-size="10" style="fill:blue">h4</text><path d="M1100 340 C1120 340 1100 440 1120 440" style="fill:transparent;stroke:black" /><rect x="1340" y="420" width="200" height="40" style="fill:white;stroke:black;stroke-width:1" /><text x="1350" y="430" font-size="10" style="fill:blue">xsl:value-of</text><path d="M1320 440 C1340 440 1320 440 1340 440" style="fill:transparent;stroke:black" /><text x="1350" y="440" font-size="8" style="fill:black">select: tipo</text><rect x="1120" y="520" width="200" height="40" style="fill:white;stroke:black;stroke-width:1" /><text x="1130" y="530" font-size="10" style="fill:blue">h4</text><path d="M1100 340 C1120 340 1100 540 1120 540" style="fill:transparent;stroke:black" /><rect x="1186" y="520" width="137" height="40" style="fill:green;stroke:black;stroke-width:1" /><text x="1196" y="530" font-size="8" style="fill:white">Dificultad:

            </text><rect x="1340" y="520" width="200" height="40" style="fill:white;stroke:black;stroke-width:1" /><text x="1350" y="530" font-size="10" style="fill:blue">xsl:value-of</text><path d="M1320 540 C1340 540 1320 540 1340 540" style="fill:transparent;stroke:black" /><text x="1350" y="540" font-size="8" style="fill:black">select: dificultad</text><rect x="1120" y="620" width="200" height="40" style="fill:white;stroke:black;stroke-width:1" /><text x="1130" y="630" font-size="10" style="fill:blue">h4</text><path d="M1100 340 C1120 340 1100 640 1120 640" style="fill:transparent;stroke:black" /><rect x="1186" y="620" width="137" height="40" style="fill:green;stroke:black;stroke-width:1" /><text x="1196" y="630" font-size="8" style="fill:white">Tiempo:

            </text><rect x="1340" y="620" width="200" height="40" style="fill:white;stroke:black;stroke-width:1" /><text x="1350" y="630" font-size="10" style="fill:blue">xsl:value-of</text><path d="M1320 640 C1340 640 1320 640 1340 640" style="fill:transparent;stroke:black" /><text x="1350" y="640" font-size="8" style="fill:black">select: tiempo-de-elavoracion</text><rect x="1120" y="720" width="200" height="40" style="fill:white;stroke:black;stroke-width:1" /><text x="1130" y="730" font-size="10" style="fill:blue">h4</text><path d="M1100 340 C1120 340 1100 740 1120 740" style="fill:transparent;stroke:black" /><rect x="1186" y="720" width="137" height="40" style="fill:green;stroke:black;stroke-width:1" /><text x="1196" y="730" font-size="8" style="fill:white">Calorias:

            </text><rect x="1340" y="720" width="200" height="40" style="fill:white;stroke:black;stroke-width:1" /><text x="1350" y="730" font-size="10" style="fill:blue">xsl:value-of</text><path d="M1320 740 C1340 740 1320 740 1340 740" style="fill:transparent;stroke:black" /><text x="1350" y="740" font-size="8" style="fill:black">select: calorias</text><rect x="1120" y="820" width="200" height="40" style="fill:white;stroke:black;stroke-width:1" /><text x="1130" y="830" font-size="10" style="fill:blue">h4</text><path d="M1100 340 C1120 340 1100 840 1120 840" style="fill:transparent;stroke:black" /><rect x="1186" y="820" width="137" height="40" style="fill:green;stroke:black;stroke-width:1" /><text x="1196" y="830" font-size="8" style="fill:white">Ingredientes</text><rect x="1120" y="870" width="200" height="40" style="fill:white;stroke:black;stroke-width:1" /><text x="1130" y="880" font-size="10" style="fill:blue">xsl:for-each</text><path d="M1100 340 C1120 340 1100 890 1120 890" style="fill:transparent;stroke:black" /><text x="1130" y="890" font-size="8" style="fill:black">select: ingredientes/ingrediente</text><rect x="1340" y="870" width="200" height="40" style="fill:white;stroke:black;stroke-width:1" /><text x="1350" y="880" font-size="10" style="fill:blue">p</text><path d="M1320 890 C1340 890 1320 890 1340 890" style="fill:transparent;stroke:black" /><rect x="1560" y="870" width="200" height="40" style="fill:white;stroke:black;stroke-width:1" /><text x="1570" y="880" font-size="10" style="fill:blue">xsl:value-of</text><path d="M1540 890 C1560 890 1540 890 1560 890" style="fill:transparent;stroke:black" /><text x="1570" y="890" font-size="8" style="fill:black">select: .</text><rect x="1406" y="920" width="137" height="40" style="fill:green;stroke:black;stroke-width:1" /><text x="1416" y="930" font-size="8" style="fill:white">.

              </text><rect x="1560" y="920" width="200" height="40" style="fill:white;stroke:black;stroke-width:1" /><text x="1570" y="930" font-size="10" style="fill:blue">xsl:value-of</text><path d="M1540 890 C1560 890 1540 940 1560 940" style="fill:transparent;stroke:black" /><text x="1570" y="940" font-size="8" style="fill:black">select: @cantidad</text><rect x="1120" y="1070" width="200" height="40" style="fill:white;stroke:black;stroke-width:1" /><text x="1130" y="1080" font-size="10" style="fill:blue">h4</text><path d="M1100 340 C1120 340 1100 1090 1120 1090" style="fill:transparent;stroke:black" /><rect x="1186" y="1070" width="137" height="40" style="fill:green;stroke:black;stroke-width:1" /><text x="1196" y="1080" font-size="8" style="fill:white">Utensilios necesarios</text><rect x="1120" y="1120" width="200" height="40" style="fill:white;stroke:black;stroke-width:1" /><text x="1130" y="1130" font-size="10" style="fill:blue">xsl:for-each</text><path d="M1100 340 C1120 340 1100 1140 1120 1140" style="fill:transparent;stroke:black" /><text x="1130" y="1140" font-size="8" style="fill:black">select: elementos/elemento</text><rect x="1340" y="1120" width="200" height="40" style="fill:white;stroke:black;stroke-width:1" /><text x="1350" y="1130" font-size="10" style="fill:blue">p</text><path d="M1320 1140 C1340 1140 1320 1140 1340 1140" style="fill:transparent;stroke:black" /><rect x="1560" y="1120" width="200" height="40" style="fill:white;stroke:black;stroke-width:1" /><text x="1570" y="1130" font-size="10" style="fill:blue">xsl:value-of</text><path d="M1540 1140 C1560 1140 1540 1140 1560 1140" style="fill:transparent;stroke:black" /><text x="1570" y="1140" font-size="8" style="fill:black">select: .</text><rect x="1120" y="1270" width="200" height="40" style="fill:white;stroke:black;stroke-width:1" /><text x="1130" y="1280" font-size="10" style="fill:blue">h4</text><path d="M1100 340 C1120 340 1100 1290 1120 1290" style="fill:transparent;stroke:black" /><rect x="1186" y="1270" width="137" height="40" style="fill:green;stroke:black;stroke-width:1" /><text x="1196" y="1280" font-size="8" style="fill:white">Proceso</text><rect x="1120" y="1320" width="200" height="40" style="fill:white;stroke:black;stroke-width:1" /><text x="1130" y="1330" font-size="10" style="fill:blue">xsl:for-each</text><path d="M1100 340 C1120 340 1100 1340 1120 1340" style="fill:transparent;stroke:black" /><text x="1130" y="1340" font-size="8" style="fill:black">select: proceso/paso</text><rect x="1340" y="1320" width="200" height="40" style="fill:white;stroke:black;stroke-width:1" /><text x="1350" y="1330" font-size="10" style="fill:blue">xsl:sort</text><path d="M1320 1340 C1340 1340 1320 1340 1340 1340" style="fill:transparent;stroke:black" /><text x="1350" y="1340" font-size="8" style="fill:black">select: @orden</text><text x="1350" y="1350" font-size="8" style="fill:black">order: descending</text><rect x="1340" y="1370" width="200" height="40" style="fill:white;stroke:black;stroke-width:1" /><text x="1350" y="1380" font-size="10" style="fill:blue">p</text><path d="M1320 1340 C1340 1340 1320 1390 1340 1390" style="fill:transparent;stroke:black" /><rect x="1560" y="1370" width="200" height="40" style="fill:white;stroke:black;stroke-width:1" /><text x="1570" y="1380" font-size="10" style="fill:blue">xsl:value-of</text><path d="M1540 1390 C1560 1390 1540 1390 1560 1390" style="fill:transparent;stroke:black" /><text x="1570" y="1390" font-size="8" style="fill:black">select: @orden</text><rect x="1406" y="1420" width="137" height="40" style="fill:green;stroke:black;stroke-width:1" /><text x="1416" y="1430" font-size="8" style="fill:white">.

              </text><rect x="1560" y="1420" width="200" height="40" style="fill:white;stroke:black;stroke-width:1" /><text x="1570" y="1430" font-size="10" style="fill:blue">xsl:value-of</text><path d="M1540 1390 C1560 1390 1540 1440 1560 1440" style="fill:transparent;stroke:black" /><text x="1570" y="1440" font-size="8" style="fill:black">select: .</text><rect x="1120" y="1570" width="200" height="40" style="fill:white;stroke:black;stroke-width:1" /><text x="1130" y="1580" font-size="10" style="fill:blue">h4</text><path d="M1100 340 C1120 340 1100 1590 1120 1590" style="fill:transparent;stroke:black" /><rect x="1186" y="1570" width="137" height="40" style="fill:green;stroke:black;stroke-width:1" /><text x="1196" y="1580" font-size="8" style="fill:white">Origen:

            </text><rect x="1340" y="1570" width="200" height="40" style="fill:white;stroke:black;stroke-width:1" /><text x="1350" y="1580" font-size="10" style="fill:blue">xsl:value-of</text><path d="M1320 1590 C1340 1590 1320 1590 1340 1590" style="fill:transparent;stroke:black" /><text x="1350" y="1590" font-size="8" style="fill:black">select: origen</text></svg>