<?xml version="1.0" encoding="utf-8"?><svg width="auto" height="3420" style="overflow:visible " version="1.1" xmlns="http://www.w3.org/2000/svg"><rect x="20" y="20" width="200" height="40" style="fill:white;stroke:black;stroke-width:1" /><text x="30" y="30" font-size="10" style="fill:blue">articulos</text><rect x="240" y="20" width="200" height="40" style="fill:white;stroke:black;stroke-width:1" /><text x="250" y="30" font-size="10" style="fill:blue">articulo</text><path d="M220 40 C240 40 220 40 240 40" style="fill:transparent;stroke:black" /><rect x="460" y="20" width="200" height="40" style="fill:white;stroke:black;stroke-width:1" /><text x="470" y="30" font-size="10" style="fill:blue">titulo</text><path d="M440 40 C460 40 440 40 460 40" style="fill:transparent;stroke:black" /><rect x="526" y="20" width="137" height="40" style="fill:green;stroke:black;stroke-width:1" /><text x="536" y="30" font-size="8" style="fill:white">Difusion-Weighted MRI: from Brownian Motion to Head and Neck Tumor Characterization</text><rect x="460" y="70" width="200" height="40" style="fill:white;stroke:black;stroke-width:1" /><text x="470" y="80" font-size="10" style="fill:blue">autores</text><path d="M440 40 C460 40 440 90 460 90" style="fill:transparent;stroke:black" /><rect x="680" y="70" width="200" height="40" style="fill:white;stroke:black;stroke-width:1" /><text x="690" y="80" font-size="10" style="fill:blue">autor</text><path d="M660 90 C680 90 660 90 680 90" style="fill:transparent;stroke:black" /><text x="690" y="90" font-size="8" style="fill:black">email: joachim.graessner@siemens.com</text><rect x="746" y="70" width="137" height="40" style="fill:green;stroke:black;stroke-width:1" /><text x="756" y="80" font-size="8" style="fill:white">J. Graessner</text><rect x="680" y="120" width="200" height="40" style="fill:white;stroke:black;stroke-width:1" /><text x="690" y="130" font-size="10" style="fill:blue">autor</text><path d="M660 90 C680 90 660 140 680 140" style="fill:transparent;stroke:black" /><text x="690" y="140" font-size="8" style="fill:black">email: cristinautrilla@hotmail.com</text><rect x="746" y="120" width="137" height="40" style="fill:green;stroke:black;stroke-width:1" /><text x="756" y="130" font-size="8" style="fill:white">C. Utrilla Contreras</text><rect x="460" y="220" width="200" height="40" style="fill:white;stroke:black;stroke-width:1" /><text x="470" y="230" font-size="10" style="fill:blue">resumen</text><path d="M440 40 C460 40 440 240 460 240" style="fill:transparent;stroke:black" /><rect x="526" y="220" width="137" height="40" style="fill:green;stroke:black;stroke-width:1" /><text x="536" y="230" font-size="8" style="fill:white">
      This paper describes basic physics as well as clinical applications of diffusion-weighted magnetic resonance imaging. This is a technique that provides complementary information to conventional imaging sequences and it is applied in the field of
      oncologic imaging. This paper focuses on its specific application in head and neck, mainly in cancer patients, for characterization of primary tumors, and also for monitoring and predicting treatment response after chemotherapy or radiation therapy.
      Last, although diffusion-weighted imaging is shown to add value in several areas by being part of the multi-parametric magnetic resonance imaging approach, there are some unsolved challenges, which are proposed as future work.
    </text><rect x="460" y="270" width="200" height="40" style="fill:white;stroke:black;stroke-width:1" /><text x="470" y="280" font-size="10" style="fill:blue">keywords</text><path d="M440 40 C460 40 440 290 460 290" style="fill:transparent;stroke:black" /><rect x="680" y="270" width="200" height="40" style="fill:white;stroke:black;stroke-width:1" /><text x="690" y="280" font-size="10" style="fill:blue">keyword</text><path d="M660 290 C680 290 660 290 680 290" style="fill:transparent;stroke:black" /><rect x="746" y="270" width="137" height="40" style="fill:green;stroke:black;stroke-width:1" /><text x="756" y="280" font-size="8" style="fill:white">diffusion-weighted</text><rect x="680" y="320" width="200" height="40" style="fill:white;stroke:black;stroke-width:1" /><text x="690" y="330" font-size="10" style="fill:blue">keyword</text><path d="M660 290 C680 290 660 340 680 340" style="fill:transparent;stroke:black" /><rect x="746" y="320" width="137" height="40" style="fill:green;stroke:black;stroke-width:1" /><text x="756" y="330" font-size="8" style="fill:white">Imaging</text><rect x="680" y="370" width="200" height="40" style="fill:white;stroke:black;stroke-width:1" /><text x="690" y="380" font-size="10" style="fill:blue">keyword</text><path d="M660 290 C680 290 660 390 680 390" style="fill:transparent;stroke:black" /><rect x="746" y="370" width="137" height="40" style="fill:green;stroke:black;stroke-width:1" /><text x="756" y="380" font-size="8" style="fill:white">Magnetic</text><rect x="680" y="420" width="200" height="40" style="fill:white;stroke:black;stroke-width:1" /><text x="690" y="430" font-size="10" style="fill:blue">keyword</text><path d="M660 290 C680 290 660 440 680 440" style="fill:transparent;stroke:black" /><rect x="746" y="420" width="137" height="40" style="fill:green;stroke:black;stroke-width:1" /><text x="756" y="430" font-size="8" style="fill:white">Resonance Imaging</text><rect x="680" y="470" width="200" height="40" style="fill:white;stroke:black;stroke-width:1" /><text x="690" y="480" font-size="10" style="fill:blue">keyword</text><path d="M660 290 C680 290 660 490 680 490" style="fill:transparent;stroke:black" /><rect x="746" y="470" width="137" height="40" style="fill:green;stroke:black;stroke-width:1" /><text x="756" y="480" font-size="8" style="fill:white">Oncologic Imaging</text><rect x="680" y="520" width="200" height="40" style="fill:white;stroke:black;stroke-width:1" /><text x="690" y="530" font-size="10" style="fill:blue">keyword</text><path d="M660 290 C680 290 660 540 680 540" style="fill:transparent;stroke:black" /><rect x="746" y="520" width="137" height="40" style="fill:green;stroke:black;stroke-width:1" /><text x="756" y="530" font-size="8" style="fill:white">Tumor Characterization</text><rect x="460" y="620" width="200" height="40" style="fill:white;stroke:black;stroke-width:1" /><text x="470" y="630" font-size="10" style="fill:blue">revista</text><path d="M440 40 C460 40 440 640 460 640" style="fill:transparent;stroke:black" /><rect x="526" y="620" width="137" height="40" style="fill:green;stroke:black;stroke-width:1" /><text x="536" y="630" font-size="8" style="fill:white">International Journal of Interactive Multimedia and Artificial Intelligence</text><rect x="460" y="670" width="200" height="40" style="fill:white;stroke:black;stroke-width:1" /><text x="470" y="680" font-size="10" style="fill:blue">pag-inicio</text><path d="M440 40 C460 40 440 690 460 690" style="fill:transparent;stroke:black" /><rect x="526" y="670" width="137" height="40" style="fill:green;stroke:black;stroke-width:1" /><text x="536" y="680" font-size="8" style="fill:white">6</text><rect x="460" y="720" width="200" height="40" style="fill:white;stroke:black;stroke-width:1" /><text x="470" y="730" font-size="10" style="fill:blue">pag-fin</text><path d="M440 40 C460 40 440 740 460 740" style="fill:transparent;stroke:black" /><rect x="526" y="720" width="137" height="40" style="fill:green;stroke:black;stroke-width:1" /><text x="536" y="730" font-size="8" style="fill:white">14</text><rect x="460" y="770" width="200" height="40" style="fill:white;stroke:black;stroke-width:1" /><text x="470" y="780" font-size="10" style="fill:blue">year</text><path d="M440 40 C460 40 440 790 460 790" style="fill:transparent;stroke:black" /><rect x="526" y="770" width="137" height="40" style="fill:green;stroke:black;stroke-width:1" /><text x="536" y="780" font-size="8" style="fill:white">2016</text><rect x="240" y="870" width="200" height="40" style="fill:white;stroke:black;stroke-width:1" /><text x="250" y="880" font-size="10" style="fill:blue">articulo</text><path d="M220 40 C240 40 220 890 240 890" style="fill:transparent;stroke:black" /><rect x="460" y="870" width="200" height="40" style="fill:white;stroke:black;stroke-width:1" /><text x="470" y="880" font-size="10" style="fill:blue">titulo</text><path d="M440 890 C460 890 440 890 460 890" style="fill:transparent;stroke:black" /><rect x="526" y="870" width="137" height="40" style="fill:green;stroke:black;stroke-width:1" /><text x="536" y="880" font-size="8" style="fill:white">Maths: from distance to e-learning</text><rect x="460" y="920" width="200" height="40" style="fill:white;stroke:black;stroke-width:1" /><text x="470" y="930" font-size="10" style="fill:blue">autores</text><path d="M440 890 C460 890 440 940 460 940" style="fill:transparent;stroke:black" /><rect x="680" y="920" width="200" height="40" style="fill:white;stroke:black;stroke-width:1" /><text x="690" y="930" font-size="10" style="fill:blue">autor</text><path d="M660 940 C680 940 660 940 680 940" style="fill:transparent;stroke:black" /><text x="690" y="940" font-size="8" style="fill:black">email: alaredd@university.com</text><rect x="746" y="920" width="137" height="40" style="fill:green;stroke:black;stroke-width:1" /><text x="756" y="930" font-size="8" style="fill:white">D. Álvarez</text><rect x="680" y="970" width="200" height="40" style="fill:white;stroke:black;stroke-width:1" /><text x="690" y="980" font-size="10" style="fill:blue">autor</text><path d="M660 940 C680 940 660 990 680 990" style="fill:transparent;stroke:black" /><text x="690" y="990" font-size="8" style="fill:black">email: moreno@gmail.com</text><rect x="746" y="970" width="137" height="40" style="fill:green;stroke:black;stroke-width:1" /><text x="756" y="980" font-size="8" style="fill:white">D. Moreno</text><rect x="680" y="1020" width="200" height="40" style="fill:white;stroke:black;stroke-width:1" /><text x="690" y="1030" font-size="10" style="fill:blue">autor</text><path d="M660 940 C680 940 660 1040 680 1040" style="fill:transparent;stroke:black" /><text x="690" y="1040" font-size="8" style="fill:black">email: orduna@email.com</text><rect x="746" y="1020" width="137" height="40" style="fill:green;stroke:black;stroke-width:1" /><text x="756" y="1030" font-size="8" style="fill:white">P. Orduna</text><rect x="680" y="1070" width="200" height="40" style="fill:white;stroke:black;stroke-width:1" /><text x="690" y="1080" font-size="10" style="fill:blue">autor</text><path d="M660 940 C680 940 660 1090 680 1090" style="fill:transparent;stroke:black" /><text x="690" y="1090" font-size="8" style="fill:black">email: pascual@email.com</text><rect x="746" y="1070" width="137" height="40" style="fill:green;stroke:black;stroke-width:1" /><text x="756" y="1080" font-size="8" style="fill:white">V. Pascual</text><rect x="680" y="1120" width="200" height="40" style="fill:white;stroke:black;stroke-width:1" /><text x="690" y="1130" font-size="10" style="fill:blue">autor</text><path d="M660 940 C680 940 660 1140 680 1140" style="fill:transparent;stroke:black" /><text x="690" y="1140" font-size="8" style="fill:black">email: vicente@uno.com</text><rect x="746" y="1120" width="137" height="40" style="fill:green;stroke:black;stroke-width:1" /><text x="756" y="1130" font-size="8" style="fill:white">F. J. San Vicente</text><rect x="460" y="1220" width="200" height="40" style="fill:white;stroke:black;stroke-width:1" /><text x="470" y="1230" font-size="10" style="fill:blue">resumen</text><path d="M440 890 C460 890 440 1240 460 1240" style="fill:transparent;stroke:black" /><rect x="526" y="1220" width="137" height="40" style="fill:green;stroke:black;stroke-width:1" /><text x="536" y="1230" font-size="8" style="fill:white">
      New technological progress and especially the use of Internet have implied a new paradigm on education, and nowadays one of its most prominent features is the rise of a new approach based on an instruction beyond the solid walls of schools and
      characterized by mobility. That is, e-learning. However, its origins and concept can be traced in time. This paper, focused on mathematics, deals with its evolution, antecedents and present status.
    </text><rect x="460" y="1270" width="200" height="40" style="fill:white;stroke:black;stroke-width:1" /><text x="470" y="1280" font-size="10" style="fill:blue">keywords</text><path d="M440 890 C460 890 440 1290 460 1290" style="fill:transparent;stroke:black" /><rect x="680" y="1270" width="200" height="40" style="fill:white;stroke:black;stroke-width:1" /><text x="690" y="1280" font-size="10" style="fill:blue">keyword</text><path d="M660 1290 C680 1290 660 1290 680 1290" style="fill:transparent;stroke:black" /><rect x="746" y="1270" width="137" height="40" style="fill:green;stroke:black;stroke-width:1" /><text x="756" y="1280" font-size="8" style="fill:white">e-learning</text><rect x="680" y="1320" width="200" height="40" style="fill:white;stroke:black;stroke-width:1" /><text x="690" y="1330" font-size="10" style="fill:blue">keyword</text><path d="M660 1290 C680 1290 660 1340 680 1340" style="fill:transparent;stroke:black" /><rect x="746" y="1320" width="137" height="40" style="fill:green;stroke:black;stroke-width:1" /><text x="756" y="1330" font-size="8" style="fill:white">b-learning</text><rect x="680" y="1370" width="200" height="40" style="fill:white;stroke:black;stroke-width:1" /><text x="690" y="1380" font-size="10" style="fill:blue">keyword</text><path d="M660 1290 C680 1290 660 1390 680 1390" style="fill:transparent;stroke:black" /><rect x="746" y="1370" width="137" height="40" style="fill:green;stroke:black;stroke-width:1" /><text x="756" y="1380" font-size="8" style="fill:white">Maths competencies</text><rect x="680" y="1420" width="200" height="40" style="fill:white;stroke:black;stroke-width:1" /><text x="690" y="1430" font-size="10" style="fill:blue">keyword</text><path d="M660 1290 C680 1290 660 1440 680 1440" style="fill:transparent;stroke:black" /><rect x="746" y="1420" width="137" height="40" style="fill:green;stroke:black;stroke-width:1" /><text x="756" y="1430" font-size="8" style="fill:white">History distance learning</text><rect x="680" y="1470" width="200" height="40" style="fill:white;stroke:black;stroke-width:1" /><text x="690" y="1480" font-size="10" style="fill:blue">keyword</text><path d="M660 1290 C680 1290 660 1490 680 1490" style="fill:transparent;stroke:black" /><rect x="746" y="1470" width="137" height="40" style="fill:green;stroke:black;stroke-width:1" /><text x="756" y="1480" font-size="8" style="fill:white">Maths software and platforms</text><rect x="460" y="1570" width="200" height="40" style="fill:white;stroke:black;stroke-width:1" /><text x="470" y="1580" font-size="10" style="fill:blue">revista</text><path d="M440 890 C460 890 440 1590 460 1590" style="fill:transparent;stroke:black" /><rect x="526" y="1570" width="137" height="40" style="fill:green;stroke:black;stroke-width:1" /><text x="536" y="1580" font-size="8" style="fill:white">International Journal of Interactive Multimedia and Artificial Intelligence</text><rect x="460" y="1620" width="200" height="40" style="fill:white;stroke:black;stroke-width:1" /><text x="470" y="1630" font-size="10" style="fill:blue">pag-inicio</text><path d="M440 890 C460 890 440 1640 460 1640" style="fill:transparent;stroke:black" /><rect x="526" y="1620" width="137" height="40" style="fill:green;stroke:black;stroke-width:1" /><text x="536" y="1630" font-size="8" style="fill:white">6</text><rect x="460" y="1670" width="200" height="40" style="fill:white;stroke:black;stroke-width:1" /><text x="470" y="1680" font-size="10" style="fill:blue">pag-fin</text><path d="M440 890 C460 890 440 1690 460 1690" style="fill:transparent;stroke:black" /><rect x="526" y="1670" width="137" height="40" style="fill:green;stroke:black;stroke-width:1" /><text x="536" y="1680" font-size="8" style="fill:white">10</text><rect x="460" y="1720" width="200" height="40" style="fill:white;stroke:black;stroke-width:1" /><text x="470" y="1730" font-size="10" style="fill:blue">year</text><path d="M440 890 C460 890 440 1740 460 1740" style="fill:transparent;stroke:black" /><rect x="526" y="1720" width="137" height="40" style="fill:green;stroke:black;stroke-width:1" /><text x="536" y="1730" font-size="8" style="fill:white">2015</text><rect x="240" y="1820" width="200" height="40" style="fill:white;stroke:black;stroke-width:1" /><text x="250" y="1830" font-size="10" style="fill:blue">articulo</text><path d="M220 40 C240 40 220 1840 240 1840" style="fill:transparent;stroke:black" /><rect x="460" y="1820" width="200" height="40" style="fill:white;stroke:black;stroke-width:1" /><text x="470" y="1830" font-size="10" style="fill:blue">titulo</text><path d="M440 1840 C460 1840 440 1840 460 1840" style="fill:transparent;stroke:black" /><rect x="526" y="1820" width="137" height="40" style="fill:green;stroke:black;stroke-width:1" /><text x="536" y="1830" font-size="8" style="fill:white">A Fuzzy Group Prioritization Method for Deriving Weights and its Software Implementation</text><rect x="460" y="1870" width="200" height="40" style="fill:white;stroke:black;stroke-width:1" /><text x="470" y="1880" font-size="10" style="fill:blue">autores</text><path d="M440 1840 C460 1840 440 1890 460 1890" style="fill:transparent;stroke:black" /><rect x="680" y="1870" width="200" height="40" style="fill:white;stroke:black;stroke-width:1" /><text x="690" y="1880" font-size="10" style="fill:blue">autor</text><path d="M660 1890 C680 1890 660 1890 680 1890" style="fill:transparent;stroke:black" /><text x="690" y="1890" font-size="8" style="fill:black">email: tarhim@ifalmu.com</text><rect x="746" y="1870" width="137" height="40" style="fill:green;stroke:black;stroke-width:1" /><text x="756" y="1880" font-size="8" style="fill:white">Tarifa Almulhim</text><rect x="680" y="1920" width="200" height="40" style="fill:white;stroke:black;stroke-width:1" /><text x="690" y="1930" font-size="10" style="fill:blue">autor</text><path d="M660 1890 C680 1890 660 1940 680 1940" style="fill:transparent;stroke:black" /><text x="690" y="1940" font-size="8" style="fill:black">email: lidmil@rusia.ru</text><rect x="746" y="1920" width="137" height="40" style="fill:green;stroke:black;stroke-width:1" /><text x="756" y="1930" font-size="8" style="fill:white">Ludmil Mikhailov</text><rect x="680" y="1970" width="200" height="40" style="fill:white;stroke:black;stroke-width:1" /><text x="690" y="1980" font-size="10" style="fill:blue">autor</text><path d="M660 1890 C680 1890 660 1990 680 1990" style="fill:transparent;stroke:black" /><text x="690" y="1990" font-size="8" style="fill:black">email: long@dong.chi</text><rect x="746" y="1970" width="137" height="40" style="fill:green;stroke:black;stroke-width:1" /><text x="756" y="1980" font-size="8" style="fill:white">Dong-Ling Xu</text><rect x="460" y="2070" width="200" height="40" style="fill:white;stroke:black;stroke-width:1" /><text x="470" y="2080" font-size="10" style="fill:blue">resumen</text><path d="M440 1840 C460 1840 440 2090 460 2090" style="fill:transparent;stroke:black" /><rect x="526" y="2070" width="137" height="40" style="fill:green;stroke:black;stroke-width:1" /><text x="536" y="2080" font-size="8" style="fill:white">
      Several Multi-Criteria Decision Making (MCDM) methods involve pairwise comparisons to obtain the preferences of decision makers (DMs). This paper proposes a fuzzy group prioritization method for deriving group priorities/weights from fuzzy pairwise
      comparison matrices. The proposed method extends the Fuzzy Preferences Programming Method (FPP) by considering the different importance weights of multiple DMs. The elements of the group pairwise comparison matrices are presented as fuzzy numbers
      rather than exact numerical values, in order to model the uncertainty and imprecision in the DMs’ judgments. Unlike the known fuzzy prioritization techniques, the proposed method is able to derive crisp weights from incomplete and fuzzy set of
      comparison judgments and does not require additional aggregation procedures. A prototype of a decision tool is developed to assist DMs to implement the proposed method for solving fuzzy group prioritization problems in MATLAB. Detailed numerical
      examples are used to illustrate the proposed approach.
    </text><rect x="460" y="2120" width="200" height="40" style="fill:white;stroke:black;stroke-width:1" /><text x="470" y="2130" font-size="10" style="fill:blue">keywords</text><path d="M440 1840 C460 1840 440 2140 460 2140" style="fill:transparent;stroke:black" /><rect x="680" y="2120" width="200" height="40" style="fill:white;stroke:black;stroke-width:1" /><text x="690" y="2130" font-size="10" style="fill:blue">keyword</text><path d="M660 2140 C680 2140 660 2140 680 2140" style="fill:transparent;stroke:black" /><rect x="746" y="2120" width="137" height="40" style="fill:green;stroke:black;stroke-width:1" /><text x="756" y="2130" font-size="8" style="fill:white">Manchester Business School</text><rect x="680" y="2170" width="200" height="40" style="fill:white;stroke:black;stroke-width:1" /><text x="690" y="2180" font-size="10" style="fill:blue">keyword</text><path d="M660 2140 C680 2140 660 2190 680 2190" style="fill:transparent;stroke:black" /><rect x="746" y="2170" width="137" height="40" style="fill:green;stroke:black;stroke-width:1" /><text x="756" y="2180" font-size="8" style="fill:white">University of Manchester</text><rect x="680" y="2220" width="200" height="40" style="fill:white;stroke:black;stroke-width:1" /><text x="690" y="2230" font-size="10" style="fill:blue">keyword</text><path d="M660 2140 C680 2140 660 2240 680 2240" style="fill:transparent;stroke:black" /><rect x="746" y="2220" width="137" height="40" style="fill:green;stroke:black;stroke-width:1" /><text x="756" y="2230" font-size="8" style="fill:white">Booth Street East</text><rect x="680" y="2270" width="200" height="40" style="fill:white;stroke:black;stroke-width:1" /><text x="690" y="2280" font-size="10" style="fill:blue">keyword</text><path d="M660 2140 C680 2140 660 2290 680 2290" style="fill:transparent;stroke:black" /><rect x="746" y="2270" width="137" height="40" style="fill:green;stroke:black;stroke-width:1" /><text x="756" y="2280" font-size="8" style="fill:white">Manchester</text><rect x="460" y="2370" width="200" height="40" style="fill:white;stroke:black;stroke-width:1" /><text x="470" y="2380" font-size="10" style="fill:blue">revista</text><path d="M440 1840 C460 1840 440 2390 460 2390" style="fill:transparent;stroke:black" /><rect x="526" y="2370" width="137" height="40" style="fill:green;stroke:black;stroke-width:1" /><text x="536" y="2380" font-size="8" style="fill:white">International Journal of Interactive Multimedia and Artificial Intelligence</text><rect x="460" y="2420" width="200" height="40" style="fill:white;stroke:black;stroke-width:1" /><text x="470" y="2430" font-size="10" style="fill:blue">pag-inicio</text><path d="M440 1840 C460 1840 440 2440 460 2440" style="fill:transparent;stroke:black" /><rect x="526" y="2420" width="137" height="40" style="fill:green;stroke:black;stroke-width:1" /><text x="536" y="2430" font-size="8" style="fill:white">4</text><rect x="460" y="2470" width="200" height="40" style="fill:white;stroke:black;stroke-width:1" /><text x="470" y="2480" font-size="10" style="fill:blue">pag-fin</text><path d="M440 1840 C460 1840 440 2490 460 2490" style="fill:transparent;stroke:black" /><rect x="526" y="2470" width="137" height="40" style="fill:green;stroke:black;stroke-width:1" /><text x="536" y="2480" font-size="8" style="fill:white">14</text><rect x="460" y="2520" width="200" height="40" style="fill:white;stroke:black;stroke-width:1" /><text x="470" y="2530" font-size="10" style="fill:blue">year</text><path d="M440 1840 C460 1840 440 2540 460 2540" style="fill:transparent;stroke:black" /><rect x="526" y="2520" width="137" height="40" style="fill:green;stroke:black;stroke-width:1" /><text x="536" y="2530" font-size="8" style="fill:white">2013</text><rect x="240" y="2620" width="200" height="40" style="fill:white;stroke:black;stroke-width:1" /><text x="250" y="2630" font-size="10" style="fill:blue">articulo</text><path d="M220 40 C240 40 220 2640 240 2640" style="fill:transparent;stroke:black" /><rect x="460" y="2620" width="200" height="40" style="fill:white;stroke:black;stroke-width:1" /><text x="470" y="2630" font-size="10" style="fill:blue">titulo</text><path d="M440 2640 C460 2640 440 2640 460 2640" style="fill:transparent;stroke:black" /><rect x="526" y="2620" width="137" height="40" style="fill:green;stroke:black;stroke-width:1" /><text x="536" y="2630" font-size="8" style="fill:white">Prospecting the future with AI</text><rect x="460" y="2670" width="200" height="40" style="fill:white;stroke:black;stroke-width:1" /><text x="470" y="2680" font-size="10" style="fill:blue">autores</text><path d="M440 2640 C460 2640 440 2690 460 2690" style="fill:transparent;stroke:black" /><rect x="680" y="2670" width="200" height="40" style="fill:white;stroke:black;stroke-width:1" /><text x="690" y="2680" font-size="10" style="fill:blue">autor</text><path d="M660 2690 C680 2690 660 2690 680 2690" style="fill:transparent;stroke:black" /><text x="690" y="2690" font-size="8" style="fill:black">email: </text><rect x="746" y="2670" width="137" height="40" style="fill:green;stroke:black;stroke-width:1" /><text x="756" y="2680" font-size="8" style="fill:white">Dr. Jose Miguel Castillo</text><rect x="680" y="2720" width="200" height="40" style="fill:white;stroke:black;stroke-width:1" /><text x="690" y="2730" font-size="10" style="fill:blue">autor</text><path d="M660 2690 C680 2690 660 2740 680 2740" style="fill:transparent;stroke:black" /><text x="690" y="2740" font-size="8" style="fill:black">email: </text><rect x="746" y="2720" width="137" height="40" style="fill:green;stroke:black;stroke-width:1" /><text x="756" y="2730" font-size="8" style="fill:white">Conchi Cortes</text><rect x="460" y="2820" width="200" height="40" style="fill:white;stroke:black;stroke-width:1" /><text x="470" y="2830" font-size="10" style="fill:blue">resumen</text><path d="M440 2640 C460 2640 440 2840 460 2840" style="fill:transparent;stroke:black" /><rect x="526" y="2820" width="137" height="40" style="fill:green;stroke:black;stroke-width:1" /><text x="536" y="2830" font-size="8" style="fill:white">
      If we were able to foresee the future, we could be prepared to reduce the impact of bad situations as well as getting the most of profiting periods. Our world is a dynamic system that evolves as time goes by. The number of variables that can
      influence in future situations outnumbers our capacity of prediction at a first glance. This article will show an alternative way to foresee potential future scenarios based on human experts’ opinion, what can be considered as a knowledge modeling
      tool"
    </text><rect x="460" y="2870" width="200" height="40" style="fill:white;stroke:black;stroke-width:1" /><text x="470" y="2880" font-size="10" style="fill:blue">keywords</text><path d="M440 2640 C460 2640 440 2890 460 2890" style="fill:transparent;stroke:black" /><rect x="680" y="2870" width="200" height="40" style="fill:white;stroke:black;stroke-width:1" /><text x="690" y="2880" font-size="10" style="fill:blue">keyword</text><path d="M660 2890 C680 2890 660 2890 680 2890" style="fill:transparent;stroke:black" /><rect x="746" y="2870" width="137" height="40" style="fill:green;stroke:black;stroke-width:1" /><text x="756" y="2880" font-size="8" style="fill:white">Conchi</text><rect x="680" y="2920" width="200" height="40" style="fill:white;stroke:black;stroke-width:1" /><text x="690" y="2930" font-size="10" style="fill:blue">keyword</text><path d="M660 2890 C680 2890 660 2940 680 2940" style="fill:transparent;stroke:black" /><rect x="746" y="2920" width="137" height="40" style="fill:green;stroke:black;stroke-width:1" /><text x="756" y="2930" font-size="8" style="fill:white">future</text><rect x="680" y="2970" width="200" height="40" style="fill:white;stroke:black;stroke-width:1" /><text x="690" y="2980" font-size="10" style="fill:blue">keyword</text><path d="M660 2890 C680 2890 660 2990 680 2990" style="fill:transparent;stroke:black" /><rect x="746" y="2970" width="137" height="40" style="fill:green;stroke:black;stroke-width:1" /><text x="756" y="2980" font-size="8" style="fill:white">Computer very scince</text><rect x="680" y="3020" width="200" height="40" style="fill:white;stroke:black;stroke-width:1" /><text x="690" y="3030" font-size="10" style="fill:blue">keyword</text><path d="M660 2890 C680 2890 660 3040 680 3040" style="fill:transparent;stroke:black" /><rect x="746" y="3020" width="137" height="40" style="fill:green;stroke:black;stroke-width:1" /><text x="756" y="3030" font-size="8" style="fill:white">human</text><rect x="460" y="3120" width="200" height="40" style="fill:white;stroke:black;stroke-width:1" /><text x="470" y="3130" font-size="10" style="fill:blue">revista</text><path d="M440 2640 C460 2640 440 3140 460 3140" style="fill:transparent;stroke:black" /><rect x="526" y="3120" width="137" height="40" style="fill:green;stroke:black;stroke-width:1" /><text x="536" y="3130" font-size="8" style="fill:white">Universal Science Human and Computer</text><rect x="460" y="3170" width="200" height="40" style="fill:white;stroke:black;stroke-width:1" /><text x="470" y="3180" font-size="10" style="fill:blue">pag-inicio</text><path d="M440 2640 C460 2640 440 3190 460 3190" style="fill:transparent;stroke:black" /><rect x="526" y="3170" width="137" height="40" style="fill:green;stroke:black;stroke-width:1" /><text x="536" y="3180" font-size="8" style="fill:white">10</text><rect x="460" y="3220" width="200" height="40" style="fill:white;stroke:black;stroke-width:1" /><text x="470" y="3230" font-size="10" style="fill:blue">pag-fin</text><path d="M440 2640 C460 2640 440 3240 460 3240" style="fill:transparent;stroke:black" /><rect x="526" y="3220" width="137" height="40" style="fill:green;stroke:black;stroke-width:1" /><text x="536" y="3230" font-size="8" style="fill:white">12</text><rect x="460" y="3270" width="200" height="40" style="fill:white;stroke:black;stroke-width:1" /><text x="470" y="3280" font-size="10" style="fill:blue">year</text><path d="M440 2640 C460 2640 440 3290 460 3290" style="fill:transparent;stroke:black" /><rect x="526" y="3270" width="137" height="40" style="fill:green;stroke:black;stroke-width:1" /><text x="536" y="3280" font-size="8" style="fill:white">1999</text></svg>